<mxfile host="app.diagrams.net" modified="2024-05-14T09:08:31.436Z" agent="Mozilla/5.0 (Windows NT 10.0; Win64; x64) AppleWebKit/537.36 (KHTML, like Gecko) Chrome/109.0.0.0 Safari/537.36" version="23.1.5" etag="nr8tE4ZPvetofae9Ei_F" type="github">
  <diagram name="第 1 页" id="yYdIALNruIeI_FpY_aa4">
    <mxGraphModel>
      <root>
        <mxCell id="0" />
        <mxCell id="1" parent="0" />
      </root>
    </mxGraphModel>
  </diagram>
</mxfile>
